<?xml version="1.0" standalone="no"?>
<!DOCTYPE svg PUBLIC "-//W3C//DTD SVG 20010904//EN"
 "http://www.w3.org/TR/2001/REC-SVG-20010904/DTD/svg10.dtd">
<svg version="1.0" xmlns="http://www.w3.org/2000/svg"
 width="260.000000pt" height="260.000000pt" viewBox="0 0 260.000000 260.000000"
 preserveAspectRatio="xMidYMid meet">
<metadata>
Created by potrace 1.11, written by Peter Selinger 2001-2013
</metadata>
<g transform="translate(0.000000,260.000000) scale(0.100000,-0.100000)"
fill="#000000" stroke="none">
<path d="M40 1295 l0 -555 278 2 277 3 0 30 0 30 -165 5 c-140 4 -171 8 -195
24 -49 30 -85 68 -108 111 -21 39 -22 51 -25 473 l-3 432 -29 0 -30 0 0 -555z"/>
<path d="M797 1304 c-4 -301 -4 -550 -1 -555 9 -15 440 -10 516 6 112 23 193
68 279 154 109 110 169 247 169 391 0 239 -172 464 -409 534 -44 13 -104 16
-301 16 l-247 0 -6 -546z m483 476 c188 -30 347 -173 395 -355 45 -174 -9
-362 -139 -482 -105 -97 -220 -138 -375 -131 -98 4 -160 28 -217 85 -70 70
-68 55 -72 496 l-4 397 174 0 c95 0 202 -5 238 -10z"/>
<path d="M1863 1836 c3 -8 81 -246 173 -530 93 -284 171 -513 175 -508 7 8
339 1029 339 1044 0 5 -14 8 -32 6 l-32 -3 -92 -295 c-51 -162 -102 -328 -114
-368 -29 -97 -58 -123 -103 -89 -10 7 -55 138 -112 322 -149 480 -131 435
-172 435 -26 0 -34 -4 -30 -14z"/>
</g>
</svg>
